# MagicaVoxel @ Ephtracy

# group
o 

# material
mtllib Coin.mtl
usemtl palette

# normals
vn -1 0 0
vn 1 0 0
vn 0 0 1
vn 0 0 -1
vn 0 -1 0
vn 0 1 0

# texcoords
vt 0.0175781 0.5
vt 0.154297 0.5
vt 0.158203 0.5

# verts
v -0.5 0.3 -0.4
v -0.5 0.3 -0.5
v -0.5 0.6 -0.4
v -0.5 0.6 -0.5
v -0.4 0.2 -0.4
v -0.4 0.2 -0.5
v -0.4 0.3 -0.4
v -0.4 0.3 -0.5
v -0.4 0.6 -0.4
v -0.4 0.6 -0.5
v -0.4 0.7 -0.4
v -0.4 0.7 -0.5
v -0.3 0.1 -0.4
v -0.3 0.1 -0.5
v -0.3 0.2 -0.4
v -0.3 0.2 -0.5
v -0.3 0.7 -0.4
v -0.3 0.7 -0.5
v -0.3 0.8 -0.4
v -0.3 0.8 -0.5
v -0.2 0 -0.4
v -0.2 0 -0.5
v -0.2 0.1 -0.4
v -0.2 0.1 -0.5
v -0.2 0.3 -0.3
v -0.2 0.3 -0.4
v -0.2 0.6 -0.3
v -0.2 0.6 -0.4
v -0.2 0.8 -0.4
v -0.2 0.8 -0.5
v -0.2 0.9 -0.4
v -0.2 0.9 -0.5
v -0.1 0.2 -0.3
v -0.1 0.2 -0.4
v -0.1 0.3 -0.3
v -0.1 0.3 -0.4
v -0.1 0.6 -0.3
v -0.1 0.6 -0.4
v -0.1 0.7 -0.3
v -0.1 0.7 -0.4
v -0.1 0.3 -0.3
v -0.1 0.3 -0.4
v -0.1 0.6 -0.3
v -0.1 0.6 -0.4
v 0.1 0.2 -0.3
v 0.1 0.2 -0.4
v 0.1 0.3 -0.3
v 0.1 0.3 -0.4
v 0.1 0.6 -0.3
v 0.1 0.6 -0.4
v 0.1 0.7 -0.3
v 0.1 0.7 -0.4
v 0.2 0 -0.4
v 0.2 0 -0.5
v 0.2 0.1 -0.4
v 0.2 0.1 -0.5
v 0.2 0.8 -0.4
v 0.2 0.8 -0.5
v 0.2 0.9 -0.4
v 0.2 0.9 -0.5
v 0.3 0.1 -0.4
v 0.3 0.1 -0.5
v 0.3 0.2 -0.4
v 0.3 0.2 -0.5
v 0.3 0.7 -0.4
v 0.3 0.7 -0.5
v 0.3 0.8 -0.4
v 0.3 0.8 -0.5
v 0.4 0.2 -0.4
v 0.4 0.2 -0.5
v 0.4 0.3 -0.4
v 0.4 0.3 -0.5
v 0.4 0.6 -0.4
v 0.4 0.6 -0.5
v 0.4 0.7 -0.4
v 0.4 0.7 -0.5
v 0.5 0.3 -0.4
v 0.5 0.3 -0.5
v 0.5 0.6 -0.4
v 0.5 0.6 -0.5
v -0.2 0.3 -0.3
v -0.2 0.6 -0.3
v -0.1 0.2 -0.3
v -0.1 0.3 -0.3
v -0.1 0.6 -0.3
v -0.1 0.7 -0.3
v 0.1 0.2 -0.3
v 0.1 0.3 -0.3
v 0.1 0.6 -0.3
v 0.1 0.7 -0.3
v -0.5 0.3 -0.4
v -0.5 0.6 -0.4
v -0.4 0.2 -0.4
v -0.4 0.3 -0.4
v -0.4 0.6 -0.4
v -0.4 0.7 -0.4
v -0.3 0.1 -0.4
v -0.3 0.2 -0.4
v -0.3 0.3 -0.4
v -0.3 0.6 -0.4
v -0.3 0.7 -0.4
v -0.3 0.8 -0.4
v -0.2 0 -0.4
v -0.2 0.1 -0.4
v -0.2 0.2 -0.4
v -0.2 0.3 -0.4
v -0.2 0.6 -0.4
v -0.2 0.7 -0.4
v -0.2 0.8 -0.4
v -0.2 0.9 -0.4
v -0.1 0.2 -0.4
v -0.1 0.3 -0.4
v -0.1 0.6 -0.4
v -0.1 0.7 -0.4
v 0.1 0.2 -0.4
v 0.1 0.3 -0.4
v 0.1 0.6 -0.4
v 0.1 0.7 -0.4
v 0.2 0 -0.4
v 0.2 0.1 -0.4
v 0.2 0.2 -0.4
v 0.2 0.7 -0.4
v 0.2 0.8 -0.4
v 0.2 0.9 -0.4
v 0.3 0.1 -0.4
v 0.3 0.2 -0.4
v 0.3 0.3 -0.4
v 0.3 0.6 -0.4
v 0.3 0.7 -0.4
v 0.3 0.8 -0.4
v 0.4 0.2 -0.4
v 0.4 0.3 -0.4
v 0.4 0.6 -0.4
v 0.4 0.7 -0.4
v 0.5 0.3 -0.4
v 0.5 0.6 -0.4
v -0.5 0.3 -0.5
v -0.5 0.6 -0.5
v -0.4 0.2 -0.5
v -0.4 0.3 -0.5
v -0.4 0.6 -0.5
v -0.4 0.7 -0.5
v -0.3 0.1 -0.5
v -0.3 0.2 -0.5
v -0.3 0.3 -0.5
v -0.3 0.6 -0.5
v -0.3 0.7 -0.5
v -0.3 0.8 -0.5
v -0.2 0 -0.5
v -0.2 0.1 -0.5
v -0.2 0.2 -0.5
v -0.2 0.7 -0.5
v -0.2 0.8 -0.5
v -0.2 0.9 -0.5
v 0.2 0 -0.5
v 0.2 0.1 -0.5
v 0.2 0.2 -0.5
v 0.2 0.7 -0.5
v 0.2 0.8 -0.5
v 0.2 0.9 -0.5
v 0.3 0.1 -0.5
v 0.3 0.2 -0.5
v 0.3 0.3 -0.5
v 0.3 0.6 -0.5
v 0.3 0.7 -0.5
v 0.3 0.8 -0.5
v 0.4 0.2 -0.5
v 0.4 0.3 -0.5
v 0.4 0.6 -0.5
v 0.4 0.7 -0.5
v 0.5 0.3 -0.5
v 0.5 0.6 -0.5
v -0.2 0 -0.4
v 0.2 0 -0.4
v -0.2 0 -0.5
v 0.2 0 -0.5
v -0.3 0.1 -0.4
v -0.2 0.1 -0.4
v 0.2 0.1 -0.4
v 0.3 0.1 -0.4
v -0.3 0.1 -0.5
v -0.2 0.1 -0.5
v 0.2 0.1 -0.5
v 0.3 0.1 -0.5
v -0.1 0.2 -0.3
v 0.1 0.2 -0.3
v -0.4 0.2 -0.4
v -0.3 0.2 -0.4
v -0.1 0.2 -0.4
v 0.1 0.2 -0.4
v 0.3 0.2 -0.4
v 0.4 0.2 -0.4
v -0.4 0.2 -0.5
v -0.3 0.2 -0.5
v 0.3 0.2 -0.5
v 0.4 0.2 -0.5
v -0.2 0.3 -0.3
v -0.1 0.3 -0.3
v -0.5 0.3 -0.4
v -0.4 0.3 -0.4
v -0.2 0.3 -0.4
v -0.1 0.3 -0.4
v 0.4 0.3 -0.4
v 0.5 0.3 -0.4
v -0.5 0.3 -0.5
v -0.4 0.3 -0.5
v 0.4 0.3 -0.5
v 0.5 0.3 -0.5
v -0.1 0.6 -0.3
v 0.1 0.6 -0.3
v -0.1 0.6 -0.4
v 0.1 0.6 -0.4
v -0.1 0.3 -0.3
v 0.1 0.3 -0.3
v -0.1 0.3 -0.4
v 0.1 0.3 -0.4
v -0.2 0.6 -0.3
v -0.1 0.6 -0.3
v -0.5 0.6 -0.4
v -0.4 0.6 -0.4
v -0.2 0.6 -0.4
v -0.1 0.6 -0.4
v 0.4 0.6 -0.4
v 0.5 0.6 -0.4
v -0.5 0.6 -0.5
v -0.4 0.6 -0.5
v 0.4 0.6 -0.5
v 0.5 0.6 -0.5
v -0.1 0.7 -0.3
v 0.1 0.7 -0.3
v -0.4 0.7 -0.4
v -0.3 0.7 -0.4
v -0.1 0.7 -0.4
v 0.1 0.7 -0.4
v 0.3 0.7 -0.4
v 0.4 0.7 -0.4
v -0.4 0.7 -0.5
v -0.3 0.7 -0.5
v 0.3 0.7 -0.5
v 0.4 0.7 -0.5
v -0.3 0.8 -0.4
v -0.2 0.8 -0.4
v 0.2 0.8 -0.4
v 0.3 0.8 -0.4
v -0.3 0.8 -0.5
v -0.2 0.8 -0.5
v 0.2 0.8 -0.5
v 0.3 0.8 -0.5
v -0.2 0.9 -0.4
v 0.2 0.9 -0.4
v -0.2 0.9 -0.5
v 0.2 0.9 -0.5

# faces
f 3/1/1 2/1/1 1/1/1
f 4/1/1 2/1/1 3/1/1
f 7/1/1 6/1/1 5/1/1
f 8/1/1 6/1/1 7/1/1
f 11/1/1 10/1/1 9/1/1
f 12/1/1 10/1/1 11/1/1
f 15/1/1 14/1/1 13/1/1
f 16/1/1 14/1/1 15/1/1
f 19/1/1 18/1/1 17/1/1
f 20/1/1 18/1/1 19/1/1
f 23/1/1 22/1/1 21/1/1
f 24/1/1 22/1/1 23/1/1
f 27/2/1 26/2/1 25/2/1
f 28/2/1 26/2/1 27/2/1
f 31/1/1 30/1/1 29/1/1
f 32/1/1 30/1/1 31/1/1
f 35/2/1 34/2/1 33/2/1
f 36/2/1 34/2/1 35/2/1
f 39/2/1 38/2/1 37/2/1
f 40/2/1 38/2/1 39/2/1
f 41/2/2 42/2/2 43/2/2
f 43/2/2 42/2/2 44/2/2
f 45/2/2 46/2/2 47/2/2
f 47/2/2 46/2/2 48/2/2
f 49/2/2 50/2/2 51/2/2
f 51/2/2 50/2/2 52/2/2
f 53/1/2 54/1/2 55/1/2
f 55/1/2 54/1/2 56/1/2
f 57/1/2 58/1/2 59/1/2
f 59/1/2 58/1/2 60/1/2
f 61/1/2 62/1/2 63/1/2
f 63/1/2 62/1/2 64/1/2
f 65/1/2 66/1/2 67/1/2
f 67/1/2 66/1/2 68/1/2
f 69/1/2 70/1/2 71/1/2
f 71/1/2 70/1/2 72/1/2
f 73/1/2 74/1/2 75/1/2
f 75/1/2 74/1/2 76/1/2
f 77/1/2 78/1/2 79/1/2
f 79/1/2 78/1/2 80/1/2
f 84/2/3 82/2/3 81/2/3
f 85/2/3 82/2/3 84/2/3
f 87/2/3 84/2/3 83/2/3
f 88/2/3 84/2/3 87/2/3
f 89/2/3 86/2/3 85/2/3
f 90/2/3 86/2/3 89/2/3
f 94/1/3 92/1/3 91/1/3
f 95/1/3 92/1/3 94/1/3
f 98/1/3 94/1/3 93/1/3
f 99/3/3 95/3/3 94/3/3
f 99/1/3 94/1/3 98/1/3
f 100/1/3 96/1/3 95/1/3
f 100/3/3 95/3/3 99/3/3
f 101/1/3 96/1/3 100/1/3
f 104/1/3 98/1/3 97/1/3
f 105/3/3 99/3/3 98/3/3
f 105/3/3 100/3/3 99/3/3
f 105/1/3 98/1/3 104/1/3
f 105/3/3 101/3/3 100/3/3
f 106/3/3 101/3/3 105/3/3
f 107/3/3 101/3/3 106/3/3
f 108/1/3 102/1/3 101/1/3
f 108/3/3 101/3/3 107/3/3
f 109/1/3 102/1/3 108/1/3
f 111/3/3 105/3/3 104/3/3
f 111/3/3 106/3/3 105/3/3
f 112/3/3 106/3/3 111/3/3
f 113/3/3 109/3/3 108/3/3
f 113/3/3 108/3/3 107/3/3
f 114/3/3 109/3/3 113/3/3
f 115/3/3 111/3/3 104/3/3
f 116/3/3 113/3/3 112/3/3
f 117/3/3 113/3/3 116/3/3
f 118/3/3 109/3/3 114/3/3
f 119/1/3 104/1/3 103/1/3
f 120/3/3 118/3/3 117/3/3
f 120/1/3 104/1/3 119/1/3
f 120/3/3 117/3/3 116/3/3
f 120/3/3 115/3/3 104/3/3
f 120/3/3 116/3/3 115/3/3
f 121/3/3 118/3/3 120/3/3
f 122/3/3 109/3/3 118/3/3
f 122/3/3 118/3/3 121/3/3
f 123/1/3 110/1/3 109/1/3
f 123/3/3 109/3/3 122/3/3
f 124/1/3 110/1/3 123/1/3
f 125/1/3 121/1/3 120/1/3
f 126/3/3 122/3/3 121/3/3
f 126/1/3 121/1/3 125/1/3
f 127/3/3 122/3/3 126/3/3
f 128/3/3 122/3/3 127/3/3
f 129/1/3 123/1/3 122/1/3
f 129/3/3 122/3/3 128/3/3
f 130/1/3 123/1/3 129/1/3
f 131/1/3 127/1/3 126/1/3
f 132/3/3 128/3/3 127/3/3
f 132/1/3 127/1/3 131/1/3
f 133/1/3 129/1/3 128/1/3
f 133/3/3 128/3/3 132/3/3
f 134/1/3 129/1/3 133/1/3
f 135/1/3 133/1/3 132/1/3
f 136/1/3 133/1/3 135/1/3
f 137/1/4 138/1/4 140/1/4
f 140/1/4 138/1/4 141/1/4
f 139/1/4 140/1/4 144/1/4
f 140/3/4 141/3/4 145/3/4
f 144/1/4 140/1/4 145/1/4
f 141/1/4 142/1/4 146/1/4
f 145/3/4 141/3/4 146/3/4
f 146/1/4 142/1/4 147/1/4
f 143/1/4 144/1/4 150/1/4
f 144/3/4 145/3/4 151/3/4
f 145/3/4 146/3/4 151/3/4
f 150/1/4 144/1/4 151/1/4
f 146/3/4 147/3/4 151/3/4
f 147/1/4 148/1/4 152/1/4
f 151/3/4 147/3/4 152/3/4
f 152/1/4 148/1/4 153/1/4
f 149/1/4 150/1/4 155/1/4
f 150/3/4 151/3/4 156/3/4
f 155/1/4 150/1/4 156/1/4
f 151/3/4 152/3/4 156/3/4
f 152/3/4 153/3/4 156/3/4
f 156/3/4 153/3/4 157/3/4
f 157/3/4 153/3/4 158/3/4
f 153/1/4 154/1/4 159/1/4
f 158/3/4 153/3/4 159/3/4
f 159/1/4 154/1/4 160/1/4
f 156/1/4 157/1/4 161/1/4
f 157/3/4 158/3/4 162/3/4
f 161/1/4 157/1/4 162/1/4
f 162/3/4 158/3/4 163/3/4
f 163/3/4 158/3/4 164/3/4
f 158/1/4 159/1/4 165/1/4
f 164/3/4 158/3/4 165/3/4
f 165/1/4 159/1/4 166/1/4
f 162/1/4 163/1/4 167/1/4
f 163/3/4 164/3/4 168/3/4
f 167/1/4 163/1/4 168/1/4
f 164/1/4 165/1/4 169/1/4
f 168/3/4 164/3/4 169/3/4
f 169/1/4 165/1/4 170/1/4
f 168/1/4 169/1/4 171/1/4
f 171/1/4 169/1/4 172/1/4
f 175/1/5 174/1/5 173/1/5
f 176/1/5 174/1/5 175/1/5
f 181/1/5 178/1/5 177/1/5
f 182/1/5 178/1/5 181/1/5
f 183/1/5 180/1/5 179/1/5
f 184/1/5 180/1/5 183/1/5
f 189/2/5 186/2/5 185/2/5
f 190/2/5 186/2/5 189/2/5
f 193/1/5 188/1/5 187/1/5
f 194/1/5 188/1/5 193/1/5
f 195/1/5 192/1/5 191/1/5
f 196/1/5 192/1/5 195/1/5
f 201/2/5 198/2/5 197/2/5
f 202/2/5 198/2/5 201/2/5
f 205/1/5 200/1/5 199/1/5
f 206/1/5 200/1/5 205/1/5
f 207/1/5 204/1/5 203/1/5
f 208/1/5 204/1/5 207/1/5
f 211/2/5 210/2/5 209/2/5
f 212/2/5 210/2/5 211/2/5
f 213/2/6 214/2/6 215/2/6
f 215/2/6 214/2/6 216/2/6
f 217/2/6 218/2/6 221/2/6
f 221/2/6 218/2/6 222/2/6
f 219/1/6 220/1/6 225/1/6
f 225/1/6 220/1/6 226/1/6
f 223/1/6 224/1/6 227/1/6
f 227/1/6 224/1/6 228/1/6
f 229/2/6 230/2/6 233/2/6
f 233/2/6 230/2/6 234/2/6
f 231/1/6 232/1/6 237/1/6
f 237/1/6 232/1/6 238/1/6
f 235/1/6 236/1/6 239/1/6
f 239/1/6 236/1/6 240/1/6
f 241/1/6 242/1/6 245/1/6
f 245/1/6 242/1/6 246/1/6
f 243/1/6 244/1/6 247/1/6
f 247/1/6 244/1/6 248/1/6
f 249/1/6 250/1/6 251/1/6
f 251/1/6 250/1/6 252/1/6
