# MagicaVoxel @ Ephtracy

# group
o 

# material
mtllib Missle.mtl
usemtl palette

# normals
vn -1 0 0
vn 1 0 0
vn 0 0 1
vn 0 0 -1
vn 0 -1 0
vn 0 1 0

# texcoords
vt 0.841797 0.5
vt 0.982422 0.5

# verts
v -0.4 0.1 -0.4
v -0.4 0.1 -0.5
v -0.4 0.4 -0.4
v -0.4 0.4 -0.5
v -0.4 0.6 -0.4
v -0.4 0.6 -0.5
v -0.4 0.9 -0.4
v -0.4 0.9 -0.5
v -0.3 0.2 -0.3
v -0.3 0.2 -0.4
v -0.3 0.4 -0.3
v -0.3 0.4 -0.4
v -0.3 0.6 -0.3
v -0.3 0.6 -0.4
v -0.3 0.8 -0.3
v -0.3 0.8 -0.4
v -0.2 0.3 0.3
v -0.2 0.3 0.2
v -0.2 0.3 -0.3
v -0.2 0.4 0.4
v -0.2 0.4 0.3
v -0.2 0.4 -0.3
v -0.2 0.4 -0.4
v -0.2 0.6 0.4
v -0.2 0.6 0.3
v -0.2 0.6 -0.3
v -0.2 0.6 -0.4
v -0.2 0.7 0.3
v -0.2 0.7 0.2
v -0.2 0.7 -0.3
v -0.1 0.3 0.4
v -0.1 0.3 0.3
v -0.1 0.4 0.5
v -0.1 0.4 0.4
v -0.1 0.4 0.3
v -0.1 0.6 0.5
v -0.1 0.6 0.4
v -0.1 0.6 0.3
v -0.1 0.7 0.4
v -0.1 0.7 0.3
v 0.1 0.1 -0.4
v 0.1 0.1 -0.5
v 0.1 0.2 -0.3
v 0.1 0.2 -0.4
v 0.1 0.3 -0.3
v 0.1 0.3 -0.4
v 0.1 0.4 -0.4
v 0.1 0.4 -0.5
v 0.1 0.6 -0.4
v 0.1 0.6 -0.5
v 0.1 0.7 -0.3
v 0.1 0.7 -0.4
v 0.1 0.8 -0.3
v 0.1 0.8 -0.4
v 0.1 0.9 -0.4
v 0.1 0.9 -0.5
v -0.1 0.1 -0.4
v -0.1 0.1 -0.5
v -0.1 0.2 -0.3
v -0.1 0.2 -0.4
v -0.1 0.3 -0.3
v -0.1 0.3 -0.4
v -0.1 0.4 -0.4
v -0.1 0.4 -0.5
v -0.1 0.6 -0.4
v -0.1 0.6 -0.5
v -0.1 0.7 -0.3
v -0.1 0.7 -0.4
v -0.1 0.8 -0.3
v -0.1 0.8 -0.4
v -0.1 0.9 -0.4
v -0.1 0.9 -0.5
v 0.1 0.3 0.4
v 0.1 0.3 0.3
v 0.1 0.4 0.5
v 0.1 0.4 0.4
v 0.1 0.4 0.3
v 0.1 0.6 0.5
v 0.1 0.6 0.4
v 0.1 0.6 0.3
v 0.1 0.7 0.4
v 0.1 0.7 0.3
v 0.2 0.3 0.3
v 0.2 0.3 0.2
v 0.2 0.3 -0.3
v 0.2 0.4 0.4
v 0.2 0.4 0.3
v 0.2 0.4 -0.3
v 0.2 0.4 -0.4
v 0.2 0.6 0.4
v 0.2 0.6 0.3
v 0.2 0.6 -0.3
v 0.2 0.6 -0.4
v 0.2 0.7 0.3
v 0.2 0.7 0.2
v 0.2 0.7 -0.3
v 0.3 0.2 -0.3
v 0.3 0.2 -0.4
v 0.3 0.4 -0.3
v 0.3 0.4 -0.4
v 0.3 0.6 -0.3
v 0.3 0.6 -0.4
v 0.3 0.8 -0.3
v 0.3 0.8 -0.4
v 0.4 0.1 -0.4
v 0.4 0.1 -0.5
v 0.4 0.4 -0.4
v 0.4 0.4 -0.5
v 0.4 0.6 -0.4
v 0.4 0.6 -0.5
v 0.4 0.9 -0.4
v 0.4 0.9 -0.5
v -0.1 0.4 0.5
v -0.1 0.6 0.5
v 0.1 0.4 0.5
v 0.1 0.6 0.5
v -0.2 0.4 0.4
v -0.2 0.6 0.4
v -0.1 0.3 0.4
v -0.1 0.4 0.4
v -0.1 0.6 0.4
v -0.1 0.7 0.4
v 0.1 0.3 0.4
v 0.1 0.4 0.4
v 0.1 0.6 0.4
v 0.1 0.7 0.4
v 0.2 0.4 0.4
v 0.2 0.6 0.4
v -0.2 0.3 0.3
v -0.2 0.4 0.3
v -0.2 0.6 0.3
v -0.2 0.7 0.3
v -0.1 0.3 0.3
v -0.1 0.4 0.3
v -0.1 0.6 0.3
v -0.1 0.7 0.3
v 0.1 0.3 0.3
v 0.1 0.4 0.3
v 0.1 0.6 0.3
v 0.1 0.7 0.3
v 0.2 0.3 0.3
v 0.2 0.4 0.3
v 0.2 0.6 0.3
v 0.2 0.7 0.3
v -0.3 0.2 -0.3
v -0.3 0.4 -0.3
v -0.3 0.6 -0.3
v -0.3 0.8 -0.3
v -0.2 0.3 -0.3
v -0.2 0.4 -0.3
v -0.2 0.6 -0.3
v -0.2 0.7 -0.3
v -0.1 0.2 -0.3
v -0.1 0.3 -0.3
v -0.1 0.7 -0.3
v -0.1 0.8 -0.3
v 0.1 0.2 -0.3
v 0.1 0.3 -0.3
v 0.1 0.7 -0.3
v 0.1 0.8 -0.3
v 0.2 0.3 -0.3
v 0.2 0.4 -0.3
v 0.2 0.6 -0.3
v 0.2 0.7 -0.3
v 0.3 0.2 -0.3
v 0.3 0.4 -0.3
v 0.3 0.6 -0.3
v 0.3 0.8 -0.3
v -0.4 0.1 -0.4
v -0.4 0.4 -0.4
v -0.4 0.6 -0.4
v -0.4 0.9 -0.4
v -0.3 0.2 -0.4
v -0.3 0.4 -0.4
v -0.3 0.6 -0.4
v -0.3 0.8 -0.4
v -0.1 0.1 -0.4
v -0.1 0.2 -0.4
v -0.1 0.8 -0.4
v -0.1 0.9 -0.4
v 0.1 0.1 -0.4
v 0.1 0.2 -0.4
v 0.1 0.8 -0.4
v 0.1 0.9 -0.4
v 0.3 0.2 -0.4
v 0.3 0.4 -0.4
v 0.3 0.6 -0.4
v 0.3 0.8 -0.4
v 0.4 0.1 -0.4
v 0.4 0.4 -0.4
v 0.4 0.6 -0.4
v 0.4 0.9 -0.4
v -0.2 0.4 -0.4
v -0.2 0.6 -0.4
v -0.1 0.3 -0.4
v -0.1 0.4 -0.4
v -0.1 0.6 -0.4
v -0.1 0.7 -0.4
v 0.1 0.3 -0.4
v 0.1 0.4 -0.4
v 0.1 0.6 -0.4
v 0.1 0.7 -0.4
v 0.2 0.4 -0.4
v 0.2 0.6 -0.4
v -0.4 0.1 -0.5
v -0.4 0.4 -0.5
v -0.4 0.6 -0.5
v -0.4 0.9 -0.5
v -0.1 0.1 -0.5
v -0.1 0.4 -0.5
v -0.1 0.6 -0.5
v -0.1 0.9 -0.5
v 0.1 0.1 -0.5
v 0.1 0.4 -0.5
v 0.1 0.6 -0.5
v 0.1 0.9 -0.5
v 0.4 0.1 -0.5
v 0.4 0.4 -0.5
v 0.4 0.6 -0.5
v 0.4 0.9 -0.5
v -0.4 0.1 -0.4
v -0.1 0.1 -0.4
v 0.1 0.1 -0.4
v 0.4 0.1 -0.4
v -0.4 0.1 -0.5
v -0.1 0.1 -0.5
v 0.1 0.1 -0.5
v 0.4 0.1 -0.5
v -0.3 0.2 -0.3
v -0.1 0.2 -0.3
v 0.1 0.2 -0.3
v 0.3 0.2 -0.3
v -0.3 0.2 -0.4
v -0.1 0.2 -0.4
v 0.1 0.2 -0.4
v 0.3 0.2 -0.4
v -0.1 0.3 0.4
v 0.1 0.3 0.4
v -0.2 0.3 0.3
v -0.1 0.3 0.3
v 0.1 0.3 0.3
v 0.2 0.3 0.3
v -0.2 0.3 0.2
v 0.2 0.3 0.2
v -0.2 0.3 -0.3
v -0.1 0.3 -0.3
v 0.1 0.3 -0.3
v 0.2 0.3 -0.3
v -0.1 0.3 -0.4
v 0.1 0.3 -0.4
v -0.1 0.4 0.5
v 0.1 0.4 0.5
v -0.2 0.4 0.4
v -0.1 0.4 0.4
v 0.1 0.4 0.4
v 0.2 0.4 0.4
v -0.2 0.4 0.3
v -0.1 0.4 0.3
v 0.1 0.4 0.3
v 0.2 0.4 0.3
v -0.3 0.6 -0.3
v -0.2 0.6 -0.3
v 0.2 0.6 -0.3
v 0.3 0.6 -0.3
v -0.4 0.6 -0.4
v -0.3 0.6 -0.4
v -0.2 0.6 -0.4
v -0.1 0.6 -0.4
v 0.1 0.6 -0.4
v 0.2 0.6 -0.4
v 0.3 0.6 -0.4
v 0.4 0.6 -0.4
v -0.4 0.6 -0.5
v -0.1 0.6 -0.5
v 0.1 0.6 -0.5
v 0.4 0.6 -0.5
v -0.3 0.4 -0.3
v -0.2 0.4 -0.3
v 0.2 0.4 -0.3
v 0.3 0.4 -0.3
v -0.4 0.4 -0.4
v -0.3 0.4 -0.4
v -0.2 0.4 -0.4
v -0.1 0.4 -0.4
v 0.1 0.4 -0.4
v 0.2 0.4 -0.4
v 0.3 0.4 -0.4
v 0.4 0.4 -0.4
v -0.4 0.4 -0.5
v -0.1 0.4 -0.5
v 0.1 0.4 -0.5
v 0.4 0.4 -0.5
v -0.1 0.6 0.5
v 0.1 0.6 0.5
v -0.2 0.6 0.4
v -0.1 0.6 0.4
v 0.1 0.6 0.4
v 0.2 0.6 0.4
v -0.2 0.6 0.3
v -0.1 0.6 0.3
v 0.1 0.6 0.3
v 0.2 0.6 0.3
v -0.1 0.7 0.4
v 0.1 0.7 0.4
v -0.2 0.7 0.3
v -0.1 0.7 0.3
v 0.1 0.7 0.3
v 0.2 0.7 0.3
v -0.2 0.7 0.2
v 0.2 0.7 0.2
v -0.2 0.7 -0.3
v -0.1 0.7 -0.3
v 0.1 0.7 -0.3
v 0.2 0.7 -0.3
v -0.1 0.7 -0.4
v 0.1 0.7 -0.4
v -0.3 0.8 -0.3
v -0.1 0.8 -0.3
v 0.1 0.8 -0.3
v 0.3 0.8 -0.3
v -0.3 0.8 -0.4
v -0.1 0.8 -0.4
v 0.1 0.8 -0.4
v 0.3 0.8 -0.4
v -0.4 0.9 -0.4
v -0.1 0.9 -0.4
v 0.1 0.9 -0.4
v 0.4 0.9 -0.4
v -0.4 0.9 -0.5
v -0.1 0.9 -0.5
v 0.1 0.9 -0.5
v 0.4 0.9 -0.5

# faces
f 3/1/1 2/1/1 1/1/1
f 4/1/1 2/1/1 3/1/1
f 7/1/1 6/1/1 5/1/1
f 8/1/1 6/1/1 7/1/1
f 11/1/1 10/1/1 9/1/1
f 12/1/1 10/1/1 11/1/1
f 15/1/1 14/1/1 13/1/1
f 16/1/1 14/1/1 15/1/1
f 21/1/1 18/1/1 17/1/1
f 22/2/1 19/2/1 18/2/1
f 24/1/1 21/1/1 20/1/1
f 25/1/1 18/1/1 21/1/1
f 25/1/1 21/1/1 24/1/1
f 26/2/1 23/2/1 22/2/1
f 26/2/1 22/2/1 18/2/1
f 27/2/1 23/2/1 26/2/1
f 28/1/1 18/1/1 25/1/1
f 29/2/1 26/2/1 18/2/1
f 29/1/1 18/1/1 28/1/1
f 30/2/1 26/2/1 29/2/1
f 34/1/1 32/1/1 31/1/1
f 35/1/1 32/1/1 34/1/1
f 36/1/1 34/1/1 33/1/1
f 37/1/1 34/1/1 36/1/1
f 39/1/1 38/1/1 37/1/1
f 40/1/1 38/1/1 39/1/1
f 44/1/1 42/1/1 41/1/1
f 45/1/1 44/1/1 43/1/1
f 46/1/1 42/1/1 44/1/1
f 46/1/1 44/1/1 45/1/1
f 47/1/1 42/1/1 46/1/1
f 48/1/1 42/1/1 47/1/1
f 52/1/1 50/1/1 49/1/1
f 53/1/1 52/1/1 51/1/1
f 54/1/1 50/1/1 52/1/1
f 54/1/1 52/1/1 53/1/1
f 55/1/1 50/1/1 54/1/1
f 56/1/1 50/1/1 55/1/1
f 57/1/2 58/1/2 60/1/2
f 59/1/2 60/1/2 61/1/2
f 60/1/2 58/1/2 62/1/2
f 61/1/2 60/1/2 62/1/2
f 62/1/2 58/1/2 63/1/2
f 63/1/2 58/1/2 64/1/2
f 65/1/2 66/1/2 68/1/2
f 67/1/2 68/1/2 69/1/2
f 68/1/2 66/1/2 70/1/2
f 69/1/2 68/1/2 70/1/2
f 70/1/2 66/1/2 71/1/2
f 71/1/2 66/1/2 72/1/2
f 73/1/2 74/1/2 76/1/2
f 76/1/2 74/1/2 77/1/2
f 75/1/2 76/1/2 78/1/2
f 78/1/2 76/1/2 79/1/2
f 79/1/2 80/1/2 81/1/2
f 81/1/2 80/1/2 82/1/2
f 83/1/2 84/1/2 87/1/2
f 84/2/2 85/2/2 88/2/2
f 86/1/2 87/1/2 90/1/2
f 87/1/2 84/1/2 91/1/2
f 90/1/2 87/1/2 91/1/2
f 88/2/2 89/2/2 92/2/2
f 84/2/2 88/2/2 92/2/2
f 92/2/2 89/2/2 93/2/2
f 91/1/2 84/1/2 94/1/2
f 84/2/2 92/2/2 95/2/2
f 94/1/2 84/1/2 95/1/2
f 95/2/2 92/2/2 96/2/2
f 97/1/2 98/1/2 99/1/2
f 99/1/2 98/1/2 100/1/2
f 101/1/2 102/1/2 103/1/2
f 103/1/2 102/1/2 104/1/2
f 105/1/2 106/1/2 107/1/2
f 107/1/2 106/1/2 108/1/2
f 109/1/2 110/1/2 111/1/2
f 111/1/2 110/1/2 112/1/2
f 115/1/3 114/1/3 113/1/3
f 116/1/3 114/1/3 115/1/3
f 120/1/3 118/1/3 117/1/3
f 121/1/3 118/1/3 120/1/3
f 123/1/3 120/1/3 119/1/3
f 124/1/3 120/1/3 123/1/3
f 125/1/3 122/1/3 121/1/3
f 126/1/3 122/1/3 125/1/3
f 127/1/3 125/1/3 124/1/3
f 128/1/3 125/1/3 127/1/3
f 133/1/3 130/1/3 129/1/3
f 134/1/3 130/1/3 133/1/3
f 135/1/3 132/1/3 131/1/3
f 136/1/3 132/1/3 135/1/3
f 141/1/3 138/1/3 137/1/3
f 142/1/3 138/1/3 141/1/3
f 143/1/3 140/1/3 139/1/3
f 144/1/3 140/1/3 143/1/3
f 149/1/3 146/1/3 145/1/3
f 150/1/3 146/1/3 149/1/3
f 151/1/3 148/1/3 147/1/3
f 152/1/3 148/1/3 151/1/3
f 153/1/3 149/1/3 145/1/3
f 154/1/3 149/1/3 153/1/3
f 155/1/3 148/1/3 152/1/3
f 156/1/3 148/1/3 155/1/3
f 161/1/3 158/1/3 157/1/3
f 164/1/3 160/1/3 159/1/3
f 165/1/3 162/1/3 161/1/3
f 165/1/3 161/1/3 157/1/3
f 166/1/3 162/1/3 165/1/3
f 167/1/3 164/1/3 163/1/3
f 168/1/3 160/1/3 164/1/3
f 168/1/3 164/1/3 167/1/3
f 173/1/3 170/1/3 169/1/3
f 174/1/3 170/1/3 173/1/3
f 175/1/3 172/1/3 171/1/3
f 176/1/3 172/1/3 175/1/3
f 177/1/3 173/1/3 169/1/3
f 178/1/3 173/1/3 177/1/3
f 179/1/3 172/1/3 176/1/3
f 180/1/3 172/1/3 179/1/3
f 185/1/3 182/1/3 181/1/3
f 188/1/3 184/1/3 183/1/3
f 189/1/3 186/1/3 185/1/3
f 189/1/3 185/1/3 181/1/3
f 190/1/3 186/1/3 189/1/3
f 191/1/3 188/1/3 187/1/3
f 192/1/3 184/1/3 188/1/3
f 192/1/3 188/1/3 191/1/3
f 193/2/4 194/2/4 196/2/4
f 196/2/4 194/2/4 197/2/4
f 195/2/4 196/2/4 199/2/4
f 197/2/4 198/2/4 199/2/4
f 196/2/4 197/2/4 199/2/4
f 199/2/4 198/2/4 200/2/4
f 200/2/4 198/2/4 201/2/4
f 201/2/4 198/2/4 202/2/4
f 200/2/4 201/2/4 203/2/4
f 203/2/4 201/2/4 204/2/4
f 205/1/4 206/1/4 209/1/4
f 209/1/4 206/1/4 210/1/4
f 207/1/4 208/1/4 211/1/4
f 211/1/4 208/1/4 212/1/4
f 213/1/4 214/1/4 217/1/4
f 217/1/4 214/1/4 218/1/4
f 215/1/4 216/1/4 219/1/4
f 219/1/4 216/1/4 220/1/4
f 225/1/5 222/1/5 221/1/5
f 226/1/5 222/1/5 225/1/5
f 227/1/5 224/1/5 223/1/5
f 228/1/5 224/1/5 227/1/5
f 233/1/5 230/1/5 229/1/5
f 234/1/5 230/1/5 233/1/5
f 235/1/5 232/1/5 231/1/5
f 236/1/5 232/1/5 235/1/5
f 240/1/5 238/1/5 237/1/5
f 241/1/5 238/1/5 240/1/5
f 243/1/5 240/1/5 239/1/5
f 243/1/5 242/1/5 241/1/5
f 243/1/5 241/1/5 240/1/5
f 244/1/5 242/1/5 243/1/5
f 245/2/5 244/2/5 243/2/5
f 246/2/5 244/2/5 245/2/5
f 247/2/5 244/2/5 246/2/5
f 248/2/5 244/2/5 247/2/5
f 249/2/5 247/2/5 246/2/5
f 250/2/5 247/2/5 249/2/5
f 254/1/5 252/1/5 251/1/5
f 255/1/5 252/1/5 254/1/5
f 257/1/5 254/1/5 253/1/5
f 258/1/5 254/1/5 257/1/5
f 259/1/5 256/1/5 255/1/5
f 260/1/5 256/1/5 259/1/5
f 266/1/5 262/1/5 261/1/5
f 267/1/5 262/1/5 266/1/5
f 270/1/5 264/1/5 263/1/5
f 271/1/5 264/1/5 270/1/5
f 273/1/5 268/1/5 267/1/5
f 273/1/5 266/1/5 265/1/5
f 273/1/5 267/1/5 266/1/5
f 274/1/5 268/1/5 273/1/5
f 275/1/5 272/1/5 271/1/5
f 275/1/5 271/1/5 270/1/5
f 275/1/5 270/1/5 269/1/5
f 276/1/5 272/1/5 275/1/5
f 277/1/6 278/1/6 282/1/6
f 282/1/6 278/1/6 283/1/6
f 279/1/6 280/1/6 286/1/6
f 286/1/6 280/1/6 287/1/6
f 283/1/6 284/1/6 289/1/6
f 281/1/6 282/1/6 289/1/6
f 282/1/6 283/1/6 289/1/6
f 289/1/6 284/1/6 290/1/6
f 287/1/6 288/1/6 291/1/6
f 286/1/6 287/1/6 291/1/6
f 285/1/6 286/1/6 291/1/6
f 291/1/6 288/1/6 292/1/6
f 293/1/6 294/1/6 296/1/6
f 296/1/6 294/1/6 297/1/6
f 295/1/6 296/1/6 299/1/6
f 299/1/6 296/1/6 300/1/6
f 297/1/6 298/1/6 301/1/6
f 301/1/6 298/1/6 302/1/6
f 303/1/6 304/1/6 306/1/6
f 306/1/6 304/1/6 307/1/6
f 305/1/6 306/1/6 309/1/6
f 307/1/6 308/1/6 309/1/6
f 306/1/6 307/1/6 309/1/6
f 309/1/6 308/1/6 310/1/6
f 309/2/6 310/2/6 311/2/6
f 311/2/6 310/2/6 312/2/6
f 312/2/6 310/2/6 313/2/6
f 313/2/6 310/2/6 314/2/6
f 312/2/6 313/2/6 315/2/6
f 315/2/6 313/2/6 316/2/6
f 317/1/6 318/1/6 321/1/6
f 321/1/6 318/1/6 322/1/6
f 319/1/6 320/1/6 323/1/6
f 323/1/6 320/1/6 324/1/6
f 325/1/6 326/1/6 329/1/6
f 329/1/6 326/1/6 330/1/6
f 327/1/6 328/1/6 331/1/6
f 331/1/6 328/1/6 332/1/6
